<?xml version="1.0" encoding="UTF-8" standalone="no"?>
<svg
   version="1.1"
   id="Layer_1"
   x="0px"
   y="0px"
   width="9933px"
   height="7016px"
   viewBox="0 0 9933 7016"
   enable-background="new 0 0 9933 7016"
   xml:space="preserve"
   sodipodi:docname="track-Granite-X.svg"
   inkscape:version="1.4.2 (f4327f4, 2025-05-13)"
   xmlns:inkscape="http://www.inkscape.org/namespaces/inkscape"
   xmlns:sodipodi="http://sodipodi.sourceforge.net/DTD/sodipodi-0.dtd"
   xmlns="http://www.w3.org/2000/svg"
   xmlns:svg="http://www.w3.org/2000/svg"
   xmlns:rdf="http://www.w3.org/1999/02/22-rdf-syntax-ns#"
   xmlns:cc="http://creativecommons.org/ns#"
   xmlns:dc="http://purl.org/dc/elements/1.1/"><metadata
   id="metadata15"><rdf:RDF><cc:Work
       rdf:about=""><dc:format>image/svg+xml</dc:format><dc:type
         rdf:resource="http://purl.org/dc/dcmitype/StillImage" /></cc:Work></rdf:RDF></metadata><defs
   id="defs13" /><sodipodi:namedview
   pagecolor="#ffffff"
   bordercolor="#666666"
   borderopacity="1"
   objecttolerance="10"
   gridtolerance="10"
   guidetolerance="10"
   inkscape:pageopacity="0"
   inkscape:pageshadow="2"
   inkscape:window-width="2560"
   inkscape:window-height="1346"
   id="namedview11"
   showgrid="false"
   inkscape:zoom="0.095140935"
   inkscape:cx="5822.9405"
   inkscape:cy="2454.2538"
   inkscape:window-x="-11"
   inkscape:window-y="-11"
   inkscape:window-maximized="1"
   inkscape:current-layer="Layer_1"
   inkscape:document-rotation="0"
   inkscape:showpageshadow="2"
   inkscape:pagecheckerboard="0"
   inkscape:deskcolor="#d1d1d1" />
<text
   transform="rotate(90.114591)"
   font-size="250"
   id="text2"
   style="font-size:250.001px;font-family:KristenITC-Regular;stroke-width:1"
   x="2604.7173"
   y="-7694.8188">Granite-X</text>



<rect
   y="0"
   fill="none"
   stroke="#000000"
   stroke-miterlimit="10"
   width="9933"
   height="7007"
   id="rect4" />
<path
   stroke-miterlimit="10"
   d="m 960.8781,896.29442 c 623.9753,0 1243.1008,45.83374 1867.1114,45.83374 147.6896,0 492.336,-126.93087 921.1978,-123.47121 696.4577,138.87164 675.3919,99.47019 687.0133,707.76645 9.3459,489.1889 829.8305,344.4687 962.1769,323.347 519.6881,-82.9395 233.4888,-27.8616 713.0261,-132.8856 346.5185,-75.8913 190.49,-584.1791 524.8872,-705.9365 533.5475,-194.27006 748.7999,-434.62793 1133.7757,-433.85297 270.9463,0.54574 604.026,34.51555 855.1757,135.09513 208.9836,110.96638 367.7621,218.80939 588.2296,388.87464 172.9785,133.4329 194.6669,435.1279 216.9503,653.3402 48.9494,479.3528 -24.4695,976.057 -24.4695,1461.353 0,296.7273 -59.7747,583.5484 -70.5134,881.0277 -10.0364,277.9778 21.3159,555.6401 25.7222,834.5741 5.5852,353.5612 59.8142,846.5306 -141.2264,1085.2488 -166.5285,197.7382 -679.6154,229.149 -980.6306,92.4882 C 5380.6876,4811.2862 2567.8199,3936.8126 479.50148,1865.2605 368.58718,1755.2367 383.35591,1649.5159 369.36466,1434.4788 357.94235,1258.9247 449.08564,1115.4464 582.2092,1009.2361 671.75162,937.79622 691.02748,927.47929 769.59655,915.78729 907.29699,895.29585 917.19622,896.59042 980.11176,896.29661"
   id="path6"
   sodipodi:nodetypes="cscsssssssssssssssssc"
   inkscape:connector-curvature="0"
   style="fill:none;stroke:#000000;stroke-width:162.024;stroke-miterlimit:10" />
<line
   stroke-miterlimit="10"
   x1="8943.0918"
   y1="3286.5679"
   x2="9843.0918"
   y2="3286.5679"
   id="line8"
   style="fill:none;stroke:#000000;stroke-width:150;stroke-miterlimit:10" />
<text
   xml:space="preserve"
   style="font-style:normal;font-weight:normal;font-size:5.33333px;line-height:1.25;font-family:sans-serif;letter-spacing:0px;word-spacing:0px;fill:#000000;fill-opacity:1;stroke:none"
   x="6755.873"
   y="3180.9832"
   id="text835"><tspan
     sodipodi:role="line"
     id="tspan833"
     x="6755.873"
     y="3180.9832"> </tspan></text>
</svg>
